<svg width="36" height="36" viewBox="0 0 36 36" fill="none" xmlns="http://www.w3.org/2000/svg">
<path d="M15 10.5L14.226 12.591C13.212 15.333 12.705 16.704 11.7045 17.7045C10.704 18.705 9.333 19.212 6.591 20.226L4.5 21L6.591 21.774C9.333 22.788 10.704 23.2965 11.7045 24.2955C12.705 25.2945 13.212 26.667 14.226 29.409L15 31.5L15.774 29.409C16.788 26.667 17.2965 25.296 18.2955 24.2955C19.2945 23.295 20.667 22.788 23.409 21.774L25.5 21L23.409 20.226C20.667 19.212 19.296 18.705 18.2955 17.7045C17.295 16.704 16.788 15.333 15.774 12.591L15 10.5ZM27 4.5L26.6685 5.3955C26.2335 6.5715 26.016 7.1595 25.5885 7.587C25.1595 8.016 24.5715 8.2335 23.3955 8.667L22.5 9L23.397 9.3315C24.5715 9.7665 25.1595 9.984 25.587 10.4115C26.016 10.8405 26.2335 11.4285 26.667 12.6045L27 13.5L27.3315 12.6045C27.7665 11.4285 27.984 10.8405 28.4115 10.413C28.8405 9.984 29.4285 9.7665 30.6045 9.333L31.5 9L30.603 8.6685C29.4285 8.2335 28.8405 8.016 28.413 7.5885C27.984 7.1595 27.7665 6.5715 27.333 5.3955L27 4.5Z" stroke="white" stroke-width="3" stroke-linecap="round" stroke-linejoin="round"/>
</svg>
