<svg width="96" height="96" viewBox="0 0 96 96" fill="none" xmlns="http://www.w3.org/2000/svg">
<path d="M76 8L56 26V70L76 52V8ZM26 20C18.2 20 9.8 21.6 4 26V84.64C4 85.64 5 86.64 6 86.64C6.4 86.64 6.6 86.36 7 86.36C12.4 83.76 20.2 82 26 82C33.8 82 42.2 83.6 48 88C53.4 84.6 63.2 82 70 82C76.6 82 83.4 83.24 89 86.24C89.4 86.44 89.6 86.36 90 86.36C91 86.36 92 85.36 92 84.36V26C89.6 24.2 87 23 84 22V76C79.6 74.6 74.8 74 70 74C63.2 74 53.4 76.6 48 80V26C42.2 21.6 33.8 20 26 20Z" fill="url(#paint0_linear_8_901)"/>
<defs>
<linearGradient id="paint0_linear_8_901" x1="48" y1="8" x2="48" y2="88" gradientUnits="userSpaceOnUse">
<stop stop-color="#6477F1"/>
<stop offset="1" stop-color="#363637"/>
</linearGradient>
</defs>
</svg>
