<svg width="40" height="40" viewBox="0 0 40 40" fill="none" xmlns="http://www.w3.org/2000/svg">
<path d="M5.10666 12.5167C6.49395 9.75593 8.62137 7.43513 11.2513 5.81348C13.8813 4.19183 16.9103 3.33316 20 3.33337C24.4917 3.33337 28.265 4.98504 31.15 7.67504L26.3717 12.455C24.6433 10.8034 22.4467 9.96171 20 9.96171C15.6583 9.96171 11.9833 12.895 10.675 16.8334C10.3417 17.8334 10.1517 18.9 10.1517 20C10.1517 21.1 10.3417 22.1667 10.675 23.1667C11.985 27.1067 15.6583 30.0384 20 30.0384C22.2417 30.0384 24.15 29.4467 25.6433 28.4467C26.5091 27.8767 27.2502 27.1371 27.822 26.2725C28.3938 25.408 28.7843 24.4365 28.97 23.4167H20V16.97H35.6967C35.8933 18.06 36 19.1967 36 20.3784C36 25.455 34.1833 29.7284 31.03 32.6284C28.2733 35.175 24.5 36.6667 20 36.6667C17.8111 36.6676 15.6434 36.2371 13.6209 35.3998C11.5984 34.5625 9.76075 33.3349 8.21293 31.7871C6.66511 30.2393 5.43749 28.4016 4.60022 26.3791C3.76295 24.3566 3.33245 22.189 3.33333 20C3.33333 17.31 3.97666 14.7667 5.10666 12.5167Z" fill="white"/>
</svg>
