<svg width="130" height="24" viewBox="0 0 130 24" fill="none" xmlns="http://www.w3.org/2000/svg">
<path d="M28.696 19V8.12H31.896C32.9413 8.12 33.7093 8.376 34.2 8.888C34.7013 9.38933 34.952 10.0667 34.952 10.92V11.272C34.952 11.7413 34.8453 12.1573 34.632 12.52C34.4187 12.8827 34.1093 13.1707 33.704 13.384C34.2693 13.5653 34.696 13.864 34.984 14.28C35.2827 14.6853 35.432 15.176 35.432 15.752V16.104C35.432 16.9787 35.176 17.6827 34.664 18.216C34.1627 18.7387 33.3733 19 32.296 19H28.696ZM31.896 9.4H30.088V12.84H31.896C32.4293 12.84 32.8293 12.7067 33.096 12.44C33.3733 12.1627 33.512 11.784 33.512 11.304V10.92C33.512 10.4507 33.3733 10.0827 33.096 9.816C32.8293 9.53867 32.4293 9.4 31.896 9.4ZM32.296 14.12H30.088V17.736H32.296C32.8613 17.736 33.2827 17.592 33.56 17.304C33.848 17.016 33.992 16.616 33.992 16.104V15.72C33.992 15.2293 33.848 14.84 33.56 14.552C33.2827 14.264 32.8613 14.12 32.296 14.12ZM44.0394 14.552V15.512C44.0394 16.6427 43.746 17.5333 43.1594 18.184C42.5834 18.8347 41.7567 19.16 40.6794 19.16C39.6127 19.16 38.786 18.8347 38.1994 18.184C37.6127 17.5333 37.3194 16.6427 37.3194 15.512V14.552C37.3194 13.4427 37.6074 12.5627 38.1834 11.912C38.77 11.2507 39.602 10.92 40.6794 10.92C41.7567 10.92 42.5834 11.2507 43.1594 11.912C43.746 12.5627 44.0394 13.4427 44.0394 14.552ZM42.6794 14.552C42.6794 13.7947 42.5087 13.2027 42.1674 12.776C41.826 12.3387 41.33 12.12 40.6794 12.12C40.0394 12.12 39.5434 12.3387 39.1914 12.776C38.85 13.2027 38.6794 13.7947 38.6794 14.552V15.512C38.6794 16.3013 38.85 16.9093 39.1914 17.336C39.5434 17.7627 40.0394 17.976 40.6794 17.976C41.33 17.976 41.826 17.7627 42.1674 17.336C42.5087 16.9093 42.6794 16.3013 42.6794 15.512V14.552ZM52.6956 14.552V15.512C52.6956 16.6427 52.4023 17.5333 51.8156 18.184C51.2396 18.8347 50.413 19.16 49.3356 19.16C48.269 19.16 47.4423 18.8347 46.8556 18.184C46.269 17.5333 45.9756 16.6427 45.9756 15.512V14.552C45.9756 13.4427 46.2636 12.5627 46.8396 11.912C47.4263 11.2507 48.2583 10.92 49.3356 10.92C50.413 10.92 51.2396 11.2507 51.8156 11.912C52.4023 12.5627 52.6956 13.4427 52.6956 14.552ZM51.3356 14.552C51.3356 13.7947 51.165 13.2027 50.8236 12.776C50.4823 12.3387 49.9863 12.12 49.3356 12.12C48.6956 12.12 48.1996 12.3387 47.8476 12.776C47.5063 13.2027 47.3356 13.7947 47.3356 14.552V15.512C47.3356 16.3013 47.5063 16.9093 47.8476 17.336C48.1996 17.7627 48.6956 17.976 49.3356 17.976C49.9863 17.976 50.4823 17.7627 50.8236 17.336C51.165 16.9093 51.3356 16.3013 51.3356 15.512V14.552ZM59.9599 19L57.7359 15.336C57.5332 15.5387 57.3199 15.7467 57.0959 15.96C56.8719 16.1733 56.6372 16.3867 56.3919 16.6V19H55.0799V7.16H56.3919V15.128C57.0852 14.456 57.6985 13.8 58.2319 13.16C58.7759 12.52 59.2719 11.8267 59.7199 11.08H61.2239C60.8399 11.72 60.4452 12.312 60.0399 12.856C59.6452 13.3893 59.1972 13.9333 58.6959 14.488L61.5439 19H59.9599ZM70.7889 20.504V21.928C69.7542 21.928 68.9649 21.7467 68.4209 21.384C67.8875 21.0213 67.4769 20.4507 67.1889 19.672L67.0129 19.16H66.9649C65.6955 19.16 64.7195 18.7653 64.0369 17.976C63.3649 17.176 63.0289 16.0987 63.0289 14.744V12.36C63.0289 11.016 63.3649 9.94933 64.0369 9.16C64.7195 8.36 65.6955 7.96 66.9649 7.96C68.2342 7.96 69.2049 8.36 69.8769 9.16C70.5595 9.94933 70.9009 11.016 70.9009 12.36V14.744C70.9009 15.832 70.6822 16.744 70.2449 17.48C69.8075 18.216 69.1675 18.712 68.3249 18.968C68.4742 19.384 68.6395 19.6987 68.8209 19.912C69.0129 20.136 69.2582 20.2853 69.5569 20.36C69.8662 20.4453 70.2769 20.4933 70.7889 20.504ZM69.4609 12.36C69.4609 11.368 69.2475 10.6053 68.8209 10.072C68.4049 9.528 67.7862 9.256 66.9649 9.256C66.1542 9.256 65.5355 9.528 65.1089 10.072C64.6822 10.6053 64.4689 11.368 64.4689 12.36V14.744C64.4689 15.7467 64.6822 16.52 65.1089 17.064C65.5355 17.608 66.1542 17.88 66.9649 17.88C67.7862 17.88 68.4049 17.608 68.8209 17.064C69.2475 16.52 69.4609 15.7467 69.4609 14.744V12.36ZM78.4443 19V17.88C77.8896 18.36 77.3936 18.696 76.9563 18.888C76.5189 19.0693 76.0816 19.16 75.6443 19.16C74.9403 19.16 74.4016 18.9307 74.0283 18.472C73.6549 18.0027 73.4683 17.3467 73.4683 16.504V11.08H74.7803V16.312C74.7803 16.8667 74.8763 17.2773 75.0683 17.544C75.2709 17.8 75.5696 17.928 75.9643 17.928C76.2629 17.928 76.5989 17.8533 76.9723 17.704C77.3456 17.5547 77.8096 17.256 78.3643 16.808V11.08H79.6763V19H78.4443ZM88.2458 18.536C87.7658 18.7707 87.2858 18.9307 86.8058 19.016C86.3258 19.112 85.8831 19.16 85.4778 19.16C84.3364 19.16 83.4831 18.8347 82.9178 18.184C82.3631 17.5333 82.0858 16.6427 82.0858 15.512V14.552C82.0858 13.4533 82.3631 12.5733 82.9178 11.912C83.4831 11.2507 84.2778 10.92 85.3018 10.92C85.8458 10.92 86.3418 11.032 86.7898 11.256C87.2484 11.4693 87.6111 11.8 87.8778 12.248C88.1551 12.6853 88.2938 13.2507 88.2938 13.944C88.2938 14.392 88.2298 14.904 88.1018 15.48H83.3818V15.512C83.3818 16.3227 83.5471 16.936 83.8778 17.352C84.2191 17.768 84.7631 17.976 85.5098 17.976C85.8511 17.976 86.2244 17.9333 86.6298 17.848C87.0458 17.7627 87.4511 17.6293 87.8458 17.448L88.2458 18.536ZM85.3018 12.072C84.6831 12.072 84.2138 12.2747 83.8938 12.68C83.5844 13.0747 83.4138 13.6347 83.3818 14.36H86.9658C86.9978 14.168 87.0138 13.9867 87.0138 13.816C87.0138 13.2187 86.8431 12.7813 86.5018 12.504C86.1711 12.216 85.7711 12.072 85.3018 12.072ZM92.5003 17.992C93.5669 17.992 94.1003 17.6293 94.1003 16.904C94.1003 16.5947 94.0043 16.3493 93.8123 16.168C93.6203 15.9867 93.2683 15.832 92.7563 15.704L91.8763 15.48C91.2256 15.32 90.7403 15.0427 90.4203 14.648C90.1003 14.2427 89.9403 13.7627 89.9403 13.208C89.9403 12.8027 90.0309 12.4293 90.2122 12.088C90.3936 11.736 90.6816 11.4533 91.0763 11.24C91.4709 11.0267 91.9829 10.92 92.6123 10.92C93.0176 10.92 93.4283 10.968 93.8443 11.064C94.2709 11.1493 94.7029 11.2987 95.1403 11.512L94.7243 12.616C93.9456 12.264 93.2416 12.088 92.6123 12.088C91.6843 12.088 91.2203 12.4347 91.2203 13.128C91.2203 13.3947 91.3056 13.624 91.4763 13.816C91.6469 14.008 91.9669 14.1627 92.4363 14.28L93.3163 14.504C94.0203 14.6747 94.5376 14.952 94.8683 15.336C95.1989 15.72 95.3643 16.216 95.3643 16.824C95.3643 17.2613 95.2683 17.6613 95.0763 18.024C94.8949 18.376 94.5963 18.6533 94.1803 18.856C93.7749 19.0587 93.2256 19.16 92.5323 19.16C92.0736 19.16 91.6149 19.112 91.1562 19.016C90.7083 18.92 90.2443 18.7653 89.7643 18.552L90.1163 17.464C90.5749 17.6453 90.9909 17.7787 91.3643 17.864C91.7376 17.9493 92.1163 17.992 92.5003 17.992ZM101.807 18.712C101.21 19.0107 100.575 19.16 99.9029 19.16C99.3269 19.16 98.8735 19.0427 98.5429 18.808C98.2229 18.5733 97.9935 18.2587 97.8549 17.864C97.7269 17.4693 97.6629 17.032 97.6629 16.552V12.232H96.2869V11.08H97.6629V8.872H98.9749V11.08H101.567V12.232H98.9749V16.504C98.9749 17.0587 99.0655 17.4427 99.2469 17.656C99.4389 17.8587 99.7322 17.96 100.127 17.96C100.319 17.96 100.516 17.9387 100.719 17.896C100.932 17.8427 101.162 17.7573 101.407 17.64L101.807 18.712ZM104.925 9.144H103.453V7.672H104.925V9.144ZM104.845 19H103.533V11.08H104.845V19ZM113.946 14.552V15.512C113.946 16.6427 113.652 17.5333 113.066 18.184C112.49 18.8347 111.663 19.16 110.586 19.16C109.519 19.16 108.692 18.8347 108.106 18.184C107.519 17.5333 107.226 16.6427 107.226 15.512V14.552C107.226 13.4427 107.514 12.5627 108.09 11.912C108.676 11.2507 109.508 10.92 110.586 10.92C111.663 10.92 112.49 11.2507 113.066 11.912C113.652 12.5627 113.946 13.4427 113.946 14.552ZM112.586 14.552C112.586 13.7947 112.415 13.2027 112.074 12.776C111.732 12.3387 111.236 12.12 110.586 12.12C109.946 12.12 109.45 12.3387 109.098 12.776C108.756 13.2027 108.586 13.7947 108.586 14.552V15.512C108.586 16.3013 108.756 16.9093 109.098 17.336C109.45 17.7627 109.946 17.976 110.586 17.976C111.236 17.976 111.732 17.7627 112.074 17.336C112.415 16.9093 112.586 16.3013 112.586 15.512V14.552ZM120.138 12.152C119.839 12.152 119.487 12.2267 119.082 12.376C118.687 12.5253 118.207 12.8293 117.642 13.288V19H116.33V11.08H117.578V12.184C118.143 11.704 118.655 11.3733 119.114 11.192C119.583 11.0107 120.031 10.92 120.458 10.92C121.194 10.92 121.754 11.1547 122.138 11.624C122.533 12.0827 122.73 12.7387 122.73 13.592V19H121.418V13.784C121.418 12.696 120.991 12.152 120.138 12.152Z" fill="white"/>
<path d="M18.2083 2.91669L13.4167 7.22919V17.7709L18.2083 13.4584V2.91669ZM6.22916 5.79169C4.36041 5.79169 2.34791 6.17502 0.958328 7.22919V21.2784C0.958328 21.5179 1.19791 21.7575 1.43749 21.7575C1.53333 21.7575 1.58124 21.6904 1.67708 21.6904C2.97083 21.0675 4.83958 20.6459 6.22916 20.6459C8.09791 20.6459 10.1104 21.0292 11.5 22.0834C12.7937 21.2688 15.1417 20.6459 16.7708 20.6459C18.3521 20.6459 19.9812 20.9429 21.3229 21.6617C21.4187 21.7096 21.4667 21.6904 21.5625 21.6904C21.8021 21.6904 22.0417 21.4509 22.0417 21.2113V7.22919C21.4667 6.79794 20.8437 6.51044 20.125 6.27085V19.2084C19.0708 18.8729 17.9208 18.7292 16.7708 18.7292C15.1417 18.7292 12.7937 19.3521 11.5 20.1667V7.22919C10.1104 6.17502 8.09791 5.79169 6.22916 5.79169Z" fill="#6477F1"/>
</svg>
