<svg width="159" height="159" viewBox="0 0 159 159" fill="none" xmlns="http://www.w3.org/2000/svg">
<path fill-rule="evenodd" clip-rule="evenodd" d="M79.5 8.28125C80.2174 8.28079 80.9265 8.43571 81.5783 8.73534C82.2302 9.03497 82.8094 9.47221 83.2762 10.017L103.151 33.2045C104.009 34.206 104.433 35.5071 104.331 36.8216C104.229 38.1361 103.61 39.3563 102.608 40.2138C101.606 41.0712 100.305 41.4957 98.9909 41.3938C97.6764 41.2919 96.4562 40.672 95.5988 39.6705L84.4688 26.6855V99.375C84.4688 100.693 83.9453 101.957 83.0134 102.888C82.0816 103.82 80.8178 104.344 79.5 104.344C78.1822 104.344 76.9184 103.82 75.9866 102.888C75.0547 101.957 74.5312 100.693 74.5312 99.375V26.6789L63.4012 39.6705C62.9767 40.1664 62.4586 40.5738 61.8766 40.8695C61.2946 41.1652 60.66 41.3433 60.0091 41.3938C59.3583 41.4442 58.7038 41.366 58.0832 41.1635C57.4626 40.961 56.8879 40.6383 56.392 40.2138C55.8961 39.7892 55.4887 39.2711 55.193 38.6891C54.8973 38.1071 54.7192 37.4725 54.6687 36.8216C54.6183 36.1708 54.6965 35.5163 54.899 34.8957C55.1015 34.2751 55.4242 33.7004 55.8488 33.2045L75.7238 10.017C76.1906 9.47221 76.7698 9.03497 77.4217 8.73534C78.0735 8.43571 78.7826 8.28079 79.5 8.28125ZM46.3485 54.6695C47.6663 54.6625 48.9329 55.1792 49.8697 56.1061C50.8065 57.0329 51.3367 58.294 51.3438 59.6118C51.3508 60.9295 50.834 62.1962 49.9072 63.133C48.9803 64.0697 47.7193 64.6 46.4015 64.607C39.1604 64.6467 34.026 64.8323 30.1239 65.5478C26.3741 66.2434 24.1945 67.3498 22.5846 68.9596C20.7495 70.7948 19.557 73.3719 18.9011 78.2346C18.232 83.2365 18.2188 89.8681 18.2188 99.375V106C18.2188 115.513 18.232 122.145 18.9011 127.147C19.557 132.01 20.7561 134.58 22.5846 136.422C24.4197 138.25 26.9903 139.443 31.8596 140.099C36.8549 140.775 43.4931 140.781 53 140.781H106C115.507 140.781 122.138 140.775 127.147 140.099C132.01 139.443 134.58 138.25 136.415 136.415C138.25 134.58 139.443 132.01 140.099 127.147C140.768 122.145 140.781 115.513 140.781 106V99.375C140.781 89.8681 140.768 83.2365 140.099 78.228C139.443 73.3719 138.244 70.7948 136.415 68.9596C134.799 67.3498 132.626 66.2434 128.876 65.5478C124.974 64.8323 119.84 64.6467 112.599 64.607C111.946 64.6035 111.301 64.4716 110.699 64.2186C110.098 63.9657 109.552 63.5968 109.093 63.133C108.634 62.6691 108.271 62.1194 108.024 61.5152C107.778 60.9111 107.653 60.2643 107.656 59.6118C107.66 58.9592 107.792 58.3138 108.045 57.7123C108.298 57.1108 108.666 56.565 109.13 56.1061C109.594 55.6471 110.144 55.2841 110.748 55.0376C111.352 54.7911 111.999 54.666 112.651 54.6695C119.82 54.7092 125.789 54.8815 130.672 55.7759C135.693 56.7034 139.966 58.459 143.445 61.9371C147.433 65.9187 149.142 70.9471 149.95 76.9096C150.719 82.6469 150.719 89.9542 150.719 99.0106V106.364C150.719 115.427 150.719 122.728 149.95 128.472C149.142 134.435 147.433 139.456 143.445 143.445C139.456 147.433 134.435 149.142 128.472 149.95C122.728 150.719 115.421 150.719 106.364 150.719H52.6356C43.5793 150.719 36.2719 150.719 30.528 149.95C24.5655 149.149 19.5438 147.433 15.5555 143.445C11.5673 139.456 9.858 134.435 9.05637 128.472C8.28125 122.728 8.28125 115.421 8.28125 106.364V99.0106C8.28125 89.9542 8.28125 82.6469 9.05637 76.903C9.85137 70.9405 11.5739 65.9187 15.5555 61.9305C19.0336 58.459 23.3068 56.6967 28.3285 55.7759C33.2111 54.8815 39.1802 54.7092 46.3485 54.6695Z" fill="url(#paint0_linear_5_55)"/>
<defs>
<linearGradient id="paint0_linear_5_55" x1="79.5" y1="8.28125" x2="79.5" y2="150.719" gradientUnits="userSpaceOnUse">
<stop stop-color="#6477F1"/>
<stop offset="1" stop-color="#363637"/>
</linearGradient>
</defs>
</svg>
